<mxfile host="Electron" modified="2023-08-25T07:33:41.042Z" agent="Mozilla/5.0 (Windows NT 10.0; Win64; x64) AppleWebKit/537.36 (KHTML, like Gecko) draw.io/21.6.5 Chrome/114.0.5735.243 Electron/25.3.1 Safari/537.36" etag="SZDWqxG9sUuxOfPES2N1" version="21.6.5" type="device">
  <diagram name="第 1 页" id="v2dYkA4pIqvY1fZK2jGk">
    <mxGraphModel dx="2899" dy="1228" grid="1" gridSize="10" guides="1" tooltips="1" connect="1" arrows="1" fold="1" page="1" pageScale="1" pageWidth="827" pageHeight="1169" math="0" shadow="0">
      <root>
        <mxCell id="0" />
        <mxCell id="1" parent="0" />
        <mxCell id="oRsIBKET7AKkAO7zckTV-3" value="" style="edgeStyle=orthogonalEdgeStyle;rounded=0;sketch=1;hachureGap=4;jiggle=2;curveFitting=1;orthogonalLoop=1;jettySize=auto;html=1;fontFamily=Architects Daughter;fontSource=https%3A%2F%2Ffonts.googleapis.com%2Fcss%3Ffamily%3DArchitects%2BDaughter;fontSize=16;" edge="1" parent="1" source="oRsIBKET7AKkAO7zckTV-1" target="oRsIBKET7AKkAO7zckTV-2">
          <mxGeometry relative="1" as="geometry" />
        </mxCell>
        <mxCell id="oRsIBKET7AKkAO7zckTV-1" value="&lt;div style=&quot;background-color: rgb(255, 255, 255); color: rgb(8, 8, 8); font-family: &amp;quot;JetBrains Mono&amp;quot;, monospace; font-size: 12pt;&quot;&gt;&lt;div class=&quot;lake-content&quot;&gt;&lt;p style=&quot;margin: 0; padding: 0; min-height: 24px&quot; class=&quot;ne-p&quot; id=&quot;uc916c392&quot;&gt;&lt;strong&gt;DefaultBeanDefinitionDocumentReader&lt;/strong&gt;&lt;/p&gt;&lt;/div&gt;&lt;/div&gt;" style="rounded=1;whiteSpace=wrap;html=1;sketch=1;hachureGap=4;jiggle=2;curveFitting=1;fontFamily=Architects Daughter;fontSource=https%3A%2F%2Ffonts.googleapis.com%2Fcss%3Ffamily%3DArchitects%2BDaughter;fontSize=20;fillColor=#dae8fc;strokeColor=#6c8ebf;" vertex="1" parent="1">
          <mxGeometry x="-70" y="70" width="330" height="80" as="geometry" />
        </mxCell>
        <mxCell id="oRsIBKET7AKkAO7zckTV-6" value="" style="edgeStyle=orthogonalEdgeStyle;rounded=0;sketch=1;hachureGap=4;jiggle=2;curveFitting=1;orthogonalLoop=1;jettySize=auto;html=1;fontFamily=Architects Daughter;fontSource=https%3A%2F%2Ffonts.googleapis.com%2Fcss%3Ffamily%3DArchitects%2BDaughter;fontSize=16;" edge="1" parent="1" source="oRsIBKET7AKkAO7zckTV-2" target="oRsIBKET7AKkAO7zckTV-5">
          <mxGeometry relative="1" as="geometry" />
        </mxCell>
        <mxCell id="oRsIBKET7AKkAO7zckTV-2" value="&lt;div style=&quot;background-color: rgb(255, 255, 255); color: rgb(8, 8, 8); font-family: &amp;quot;JetBrains Mono&amp;quot;, monospace; font-size: 12pt;&quot;&gt;BeanDefinitionParserDelegate&lt;/div&gt;" style="whiteSpace=wrap;html=1;fontSize=20;fontFamily=Architects Daughter;fillColor=#d5e8d4;strokeColor=#82b366;rounded=1;sketch=1;hachureGap=4;jiggle=2;curveFitting=1;fontSource=https%3A%2F%2Ffonts.googleapis.com%2Fcss%3Ffamily%3DArchitects%2BDaughter;" vertex="1" parent="1">
          <mxGeometry x="570" y="75" width="244" height="70" as="geometry" />
        </mxCell>
        <mxCell id="oRsIBKET7AKkAO7zckTV-4" value="委托来解析" style="text;html=1;strokeColor=none;fillColor=none;align=center;verticalAlign=middle;whiteSpace=wrap;rounded=0;fontSize=20;fontFamily=Architects Daughter;" vertex="1" parent="1">
          <mxGeometry x="350" y="80" width="120" height="20" as="geometry" />
        </mxCell>
        <mxCell id="oRsIBKET7AKkAO7zckTV-9" value="" style="edgeStyle=orthogonalEdgeStyle;rounded=0;sketch=1;hachureGap=4;jiggle=2;curveFitting=1;orthogonalLoop=1;jettySize=auto;html=1;fontFamily=Architects Daughter;fontSource=https%3A%2F%2Ffonts.googleapis.com%2Fcss%3Ffamily%3DArchitects%2BDaughter;fontSize=16;" edge="1" parent="1" source="oRsIBKET7AKkAO7zckTV-5" target="oRsIBKET7AKkAO7zckTV-8">
          <mxGeometry relative="1" as="geometry" />
        </mxCell>
        <mxCell id="oRsIBKET7AKkAO7zckTV-17" value="" style="edgeStyle=orthogonalEdgeStyle;rounded=0;sketch=1;hachureGap=4;jiggle=2;curveFitting=1;orthogonalLoop=1;jettySize=auto;html=1;fontFamily=Architects Daughter;fontSource=https%3A%2F%2Ffonts.googleapis.com%2Fcss%3Ffamily%3DArchitects%2BDaughter;fontSize=16;" edge="1" parent="1" source="oRsIBKET7AKkAO7zckTV-5" target="oRsIBKET7AKkAO7zckTV-16">
          <mxGeometry relative="1" as="geometry" />
        </mxCell>
        <mxCell id="oRsIBKET7AKkAO7zckTV-5" value="XML文件的解析" style="whiteSpace=wrap;html=1;fontSize=20;fontFamily=Architects Daughter;fillColor=#f8cecc;strokeColor=#b85450;rounded=1;sketch=1;hachureGap=4;jiggle=2;curveFitting=1;fontSource=https%3A%2F%2Ffonts.googleapis.com%2Fcss%3Ffamily%3DArchitects%2BDaughter;" vertex="1" parent="1">
          <mxGeometry x="632" y="210" width="120" height="60" as="geometry" />
        </mxCell>
        <mxCell id="oRsIBKET7AKkAO7zckTV-11" value="" style="edgeStyle=orthogonalEdgeStyle;rounded=0;sketch=1;hachureGap=4;jiggle=2;curveFitting=1;orthogonalLoop=1;jettySize=auto;html=1;fontFamily=Architects Daughter;fontSource=https%3A%2F%2Ffonts.googleapis.com%2Fcss%3Ffamily%3DArchitects%2BDaughter;fontSize=16;" edge="1" parent="1" source="oRsIBKET7AKkAO7zckTV-8" target="oRsIBKET7AKkAO7zckTV-10">
          <mxGeometry relative="1" as="geometry" />
        </mxCell>
        <mxCell id="oRsIBKET7AKkAO7zckTV-20" value="" style="edgeStyle=orthogonalEdgeStyle;rounded=0;sketch=1;hachureGap=4;jiggle=2;curveFitting=1;orthogonalLoop=1;jettySize=auto;html=1;fontFamily=Architects Daughter;fontSource=https%3A%2F%2Ffonts.googleapis.com%2Fcss%3Ffamily%3DArchitects%2BDaughter;fontSize=16;" edge="1" parent="1" source="oRsIBKET7AKkAO7zckTV-8" target="oRsIBKET7AKkAO7zckTV-19">
          <mxGeometry relative="1" as="geometry" />
        </mxCell>
        <mxCell id="oRsIBKET7AKkAO7zckTV-8" value="环境判断" style="whiteSpace=wrap;html=1;fontSize=20;fontFamily=Architects Daughter;fillColor=#d5e8d4;strokeColor=#82b366;rounded=1;sketch=1;hachureGap=4;jiggle=2;curveFitting=1;fontSource=https%3A%2F%2Ffonts.googleapis.com%2Fcss%3Ffamily%3DArchitects%2BDaughter;" vertex="1" parent="1">
          <mxGeometry x="460" y="210" width="120" height="60" as="geometry" />
        </mxCell>
        <mxCell id="oRsIBKET7AKkAO7zckTV-13" value="" style="edgeStyle=orthogonalEdgeStyle;rounded=0;sketch=1;hachureGap=4;jiggle=2;curveFitting=1;orthogonalLoop=1;jettySize=auto;html=1;fontFamily=Architects Daughter;fontSource=https%3A%2F%2Ffonts.googleapis.com%2Fcss%3Ffamily%3DArchitects%2BDaughter;fontSize=16;" edge="1" parent="1" source="oRsIBKET7AKkAO7zckTV-10" target="oRsIBKET7AKkAO7zckTV-12">
          <mxGeometry relative="1" as="geometry" />
        </mxCell>
        <mxCell id="oRsIBKET7AKkAO7zckTV-22" value="" style="edgeStyle=orthogonalEdgeStyle;rounded=0;sketch=1;hachureGap=4;jiggle=2;curveFitting=1;orthogonalLoop=1;jettySize=auto;html=1;fontFamily=Architects Daughter;fontSource=https%3A%2F%2Ffonts.googleapis.com%2Fcss%3Ffamily%3DArchitects%2BDaughter;fontSize=16;" edge="1" parent="1" source="oRsIBKET7AKkAO7zckTV-10" target="oRsIBKET7AKkAO7zckTV-21">
          <mxGeometry relative="1" as="geometry" />
        </mxCell>
        <mxCell id="oRsIBKET7AKkAO7zckTV-10" value="前置处理" style="whiteSpace=wrap;html=1;fontSize=20;fontFamily=Architects Daughter;fillColor=#e1d5e7;strokeColor=#9673a6;rounded=1;sketch=1;hachureGap=4;jiggle=2;curveFitting=1;fontSource=https%3A%2F%2Ffonts.googleapis.com%2Fcss%3Ffamily%3DArchitects%2BDaughter;" vertex="1" parent="1">
          <mxGeometry x="294" y="210" width="120" height="60" as="geometry" />
        </mxCell>
        <mxCell id="oRsIBKET7AKkAO7zckTV-15" value="" style="edgeStyle=orthogonalEdgeStyle;rounded=0;sketch=1;hachureGap=4;jiggle=2;curveFitting=1;orthogonalLoop=1;jettySize=auto;html=1;fontFamily=Architects Daughter;fontSource=https%3A%2F%2Ffonts.googleapis.com%2Fcss%3Ffamily%3DArchitects%2BDaughter;fontSize=16;" edge="1" parent="1" source="oRsIBKET7AKkAO7zckTV-12" target="oRsIBKET7AKkAO7zckTV-14">
          <mxGeometry relative="1" as="geometry" />
        </mxCell>
        <mxCell id="oRsIBKET7AKkAO7zckTV-24" value="" style="edgeStyle=orthogonalEdgeStyle;rounded=0;sketch=1;hachureGap=4;jiggle=2;curveFitting=1;orthogonalLoop=1;jettySize=auto;html=1;fontFamily=Architects Daughter;fontSource=https%3A%2F%2Ffonts.googleapis.com%2Fcss%3Ffamily%3DArchitects%2BDaughter;fontSize=16;" edge="1" parent="1" source="oRsIBKET7AKkAO7zckTV-12" target="oRsIBKET7AKkAO7zckTV-23">
          <mxGeometry relative="1" as="geometry" />
        </mxCell>
        <mxCell id="oRsIBKET7AKkAO7zckTV-12" value="解析Bean" style="whiteSpace=wrap;html=1;fontSize=20;fontFamily=Architects Daughter;fillColor=#f0a30a;strokeColor=#BD7000;rounded=1;sketch=1;hachureGap=4;jiggle=2;curveFitting=1;fontSource=https%3A%2F%2Ffonts.googleapis.com%2Fcss%3Ffamily%3DArchitects%2BDaughter;fontColor=#000000;" vertex="1" parent="1">
          <mxGeometry x="120" y="210" width="120" height="60" as="geometry" />
        </mxCell>
        <mxCell id="oRsIBKET7AKkAO7zckTV-26" value="" style="edgeStyle=orthogonalEdgeStyle;rounded=0;sketch=1;hachureGap=4;jiggle=2;curveFitting=1;orthogonalLoop=1;jettySize=auto;html=1;fontFamily=Architects Daughter;fontSource=https%3A%2F%2Ffonts.googleapis.com%2Fcss%3Ffamily%3DArchitects%2BDaughter;fontSize=16;" edge="1" parent="1" source="oRsIBKET7AKkAO7zckTV-14" target="oRsIBKET7AKkAO7zckTV-25">
          <mxGeometry relative="1" as="geometry" />
        </mxCell>
        <mxCell id="oRsIBKET7AKkAO7zckTV-14" value="后置处理" style="whiteSpace=wrap;html=1;fontSize=20;fontFamily=Architects Daughter;fillColor=#f8cecc;strokeColor=#b85450;rounded=1;sketch=1;hachureGap=4;jiggle=2;curveFitting=1;fontSource=https%3A%2F%2Ffonts.googleapis.com%2Fcss%3Ffamily%3DArchitects%2BDaughter;" vertex="1" parent="1">
          <mxGeometry x="-40" y="210" width="120" height="60" as="geometry" />
        </mxCell>
        <mxCell id="oRsIBKET7AKkAO7zckTV-16" value="root开始" style="ellipse;whiteSpace=wrap;html=1;fontSize=20;fontFamily=Architects Daughter;fillColor=#f8cecc;strokeColor=#b85450;rounded=1;sketch=1;hachureGap=4;jiggle=2;curveFitting=1;fontSource=https%3A%2F%2Ffonts.googleapis.com%2Fcss%3Ffamily%3DArchitects%2BDaughter;" vertex="1" parent="1">
          <mxGeometry x="652" y="340" width="80" height="80" as="geometry" />
        </mxCell>
        <mxCell id="oRsIBKET7AKkAO7zckTV-19" value="环境激活" style="ellipse;whiteSpace=wrap;html=1;fontSize=20;fontFamily=Architects Daughter;fillColor=#d5e8d4;strokeColor=#82b366;rounded=1;sketch=1;hachureGap=4;jiggle=2;curveFitting=1;fontSource=https%3A%2F%2Ffonts.googleapis.com%2Fcss%3Ffamily%3DArchitects%2BDaughter;" vertex="1" parent="1">
          <mxGeometry x="480" y="340" width="80" height="80" as="geometry" />
        </mxCell>
        <mxCell id="oRsIBKET7AKkAO7zckTV-21" value="扩展" style="ellipse;whiteSpace=wrap;html=1;fontSize=20;fontFamily=Architects Daughter;fillColor=#f8cecc;strokeColor=#b85450;rounded=1;sketch=1;hachureGap=4;jiggle=2;curveFitting=1;fontSource=https%3A%2F%2Ffonts.googleapis.com%2Fcss%3Ffamily%3DArchitects%2BDaughter;" vertex="1" parent="1">
          <mxGeometry x="314" y="340" width="80" height="80" as="geometry" />
        </mxCell>
        <mxCell id="oRsIBKET7AKkAO7zckTV-28" value="" style="edgeStyle=orthogonalEdgeStyle;rounded=0;sketch=1;hachureGap=4;jiggle=2;curveFitting=1;orthogonalLoop=1;jettySize=auto;html=1;fontFamily=Architects Daughter;fontSource=https%3A%2F%2Ffonts.googleapis.com%2Fcss%3Ffamily%3DArchitects%2BDaughter;fontSize=16;" edge="1" parent="1" source="oRsIBKET7AKkAO7zckTV-23">
          <mxGeometry relative="1" as="geometry">
            <mxPoint x="180" y="490" as="targetPoint" />
          </mxGeometry>
        </mxCell>
        <mxCell id="oRsIBKET7AKkAO7zckTV-23" value="真正委托给解析器" style="whiteSpace=wrap;html=1;fontSize=20;fontFamily=Architects Daughter;fillColor=#f0a30a;strokeColor=#BD7000;rounded=1;sketch=1;hachureGap=4;jiggle=2;curveFitting=1;fontSource=https%3A%2F%2Ffonts.googleapis.com%2Fcss%3Ffamily%3DArchitects%2BDaughter;fontColor=#000000;" vertex="1" parent="1">
          <mxGeometry x="120" y="350" width="120" height="60" as="geometry" />
        </mxCell>
        <mxCell id="oRsIBKET7AKkAO7zckTV-25" value="扩展" style="ellipse;whiteSpace=wrap;html=1;fontSize=20;fontFamily=Architects Daughter;fillColor=#f8cecc;strokeColor=#b85450;rounded=1;sketch=1;hachureGap=4;jiggle=2;curveFitting=1;fontSource=https%3A%2F%2Ffonts.googleapis.com%2Fcss%3Ffamily%3DArchitects%2BDaughter;" vertex="1" parent="1">
          <mxGeometry x="-20" y="340" width="80" height="80" as="geometry" />
        </mxCell>
        <mxCell id="oRsIBKET7AKkAO7zckTV-46" style="edgeStyle=orthogonalEdgeStyle;rounded=0;sketch=1;hachureGap=4;jiggle=2;curveFitting=1;orthogonalLoop=1;jettySize=auto;html=1;fontFamily=Architects Daughter;fontSource=https%3A%2F%2Ffonts.googleapis.com%2Fcss%3Ffamily%3DArchitects%2BDaughter;fontSize=16;" edge="1" parent="1" source="oRsIBKET7AKkAO7zckTV-29">
          <mxGeometry relative="1" as="geometry">
            <mxPoint x="190" y="610" as="targetPoint" />
          </mxGeometry>
        </mxCell>
        <mxCell id="oRsIBKET7AKkAO7zckTV-29" value="&lt;div style=&quot;background-color: rgb(255, 255, 255); color: rgb(8, 8, 8); font-family: &amp;quot;JetBrains Mono&amp;quot;, monospace; font-size: 12pt;&quot;&gt;parseBeanDefinitions(root, &lt;span style=&quot;color:#0033b3;&quot;&gt;this&lt;/span&gt;.&lt;span style=&quot;color:#871094;&quot;&gt;delegate&lt;/span&gt;);&lt;/div&gt;" style="text;whiteSpace=wrap;html=1;fontSize=20;fontFamily=Architects Daughter;fillColor=#f0a30a;fontColor=#000000;strokeColor=#BD7000;" vertex="1" parent="1">
          <mxGeometry x="10" y="480" width="370" height="40" as="geometry" />
        </mxCell>
        <mxCell id="oRsIBKET7AKkAO7zckTV-33" style="edgeStyle=orthogonalEdgeStyle;rounded=0;sketch=1;hachureGap=4;jiggle=2;curveFitting=1;orthogonalLoop=1;jettySize=auto;html=1;entryX=0.5;entryY=0;entryDx=0;entryDy=0;fontFamily=Architects Daughter;fontSource=https%3A%2F%2Ffonts.googleapis.com%2Fcss%3Ffamily%3DArchitects%2BDaughter;fontSize=16;" edge="1" parent="1" source="oRsIBKET7AKkAO7zckTV-30" target="oRsIBKET7AKkAO7zckTV-31">
          <mxGeometry relative="1" as="geometry" />
        </mxCell>
        <mxCell id="oRsIBKET7AKkAO7zckTV-34" style="edgeStyle=orthogonalEdgeStyle;rounded=0;sketch=1;hachureGap=4;jiggle=2;curveFitting=1;orthogonalLoop=1;jettySize=auto;html=1;exitX=0.5;exitY=1;exitDx=0;exitDy=0;entryX=0.55;entryY=-0.043;entryDx=0;entryDy=0;entryPerimeter=0;fontFamily=Architects Daughter;fontSource=https%3A%2F%2Ffonts.googleapis.com%2Fcss%3Ffamily%3DArchitects%2BDaughter;fontSize=16;" edge="1" parent="1" source="oRsIBKET7AKkAO7zckTV-30" target="oRsIBKET7AKkAO7zckTV-32">
          <mxGeometry relative="1" as="geometry" />
        </mxCell>
        <mxCell id="oRsIBKET7AKkAO7zckTV-30" value="开始解析" style="rounded=1;whiteSpace=wrap;html=1;sketch=1;hachureGap=4;jiggle=2;curveFitting=1;fontFamily=Architects Daughter;fontSource=https%3A%2F%2Ffonts.googleapis.com%2Fcss%3Ffamily%3DArchitects%2BDaughter;fontSize=20;fillColor=#e3c800;fontColor=#000000;strokeColor=#B09500;" vertex="1" parent="1">
          <mxGeometry x="40" y="620" width="280" height="60" as="geometry" />
        </mxCell>
        <mxCell id="oRsIBKET7AKkAO7zckTV-31" value="自定义标签" style="rounded=1;whiteSpace=wrap;html=1;sketch=1;hachureGap=4;jiggle=2;curveFitting=1;fontFamily=Architects Daughter;fontSource=https%3A%2F%2Ffonts.googleapis.com%2Fcss%3Ffamily%3DArchitects%2BDaughter;fontSize=20;fillColor=#e3c800;fontColor=#000000;strokeColor=#B09500;" vertex="1" parent="1">
          <mxGeometry x="-60" y="780" width="180" height="60" as="geometry" />
        </mxCell>
        <mxCell id="oRsIBKET7AKkAO7zckTV-42" style="edgeStyle=orthogonalEdgeStyle;rounded=0;sketch=1;hachureGap=4;jiggle=2;curveFitting=1;orthogonalLoop=1;jettySize=auto;html=1;entryX=0;entryY=0.5;entryDx=0;entryDy=0;fontFamily=Architects Daughter;fontSource=https%3A%2F%2Ffonts.googleapis.com%2Fcss%3Ffamily%3DArchitects%2BDaughter;fontSize=16;" edge="1" parent="1" source="oRsIBKET7AKkAO7zckTV-32" target="oRsIBKET7AKkAO7zckTV-36">
          <mxGeometry relative="1" as="geometry" />
        </mxCell>
        <mxCell id="oRsIBKET7AKkAO7zckTV-43" style="edgeStyle=orthogonalEdgeStyle;rounded=0;sketch=1;hachureGap=4;jiggle=2;curveFitting=1;orthogonalLoop=1;jettySize=auto;html=1;exitX=1;exitY=0.5;exitDx=0;exitDy=0;entryX=0;entryY=0.5;entryDx=0;entryDy=0;fontFamily=Architects Daughter;fontSource=https%3A%2F%2Ffonts.googleapis.com%2Fcss%3Ffamily%3DArchitects%2BDaughter;fontSize=16;" edge="1" parent="1" source="oRsIBKET7AKkAO7zckTV-32" target="oRsIBKET7AKkAO7zckTV-39">
          <mxGeometry relative="1" as="geometry" />
        </mxCell>
        <mxCell id="oRsIBKET7AKkAO7zckTV-44" style="edgeStyle=orthogonalEdgeStyle;rounded=0;sketch=1;hachureGap=4;jiggle=2;curveFitting=1;orthogonalLoop=1;jettySize=auto;html=1;exitX=1;exitY=0.5;exitDx=0;exitDy=0;entryX=0;entryY=0.5;entryDx=0;entryDy=0;fontFamily=Architects Daughter;fontSource=https%3A%2F%2Ffonts.googleapis.com%2Fcss%3Ffamily%3DArchitects%2BDaughter;fontSize=16;" edge="1" parent="1" source="oRsIBKET7AKkAO7zckTV-32" target="oRsIBKET7AKkAO7zckTV-40">
          <mxGeometry relative="1" as="geometry" />
        </mxCell>
        <mxCell id="oRsIBKET7AKkAO7zckTV-45" style="edgeStyle=orthogonalEdgeStyle;rounded=0;sketch=1;hachureGap=4;jiggle=2;curveFitting=1;orthogonalLoop=1;jettySize=auto;html=1;exitX=1;exitY=0.5;exitDx=0;exitDy=0;entryX=0;entryY=0.5;entryDx=0;entryDy=0;fontFamily=Architects Daughter;fontSource=https%3A%2F%2Ffonts.googleapis.com%2Fcss%3Ffamily%3DArchitects%2BDaughter;fontSize=16;" edge="1" parent="1" source="oRsIBKET7AKkAO7zckTV-32" target="oRsIBKET7AKkAO7zckTV-41">
          <mxGeometry relative="1" as="geometry" />
        </mxCell>
        <mxCell id="oRsIBKET7AKkAO7zckTV-32" value="默认标签" style="rounded=1;whiteSpace=wrap;html=1;sketch=1;hachureGap=4;jiggle=2;curveFitting=1;fontFamily=Architects Daughter;fontSource=https%3A%2F%2Ffonts.googleapis.com%2Fcss%3Ffamily%3DArchitects%2BDaughter;fontSize=20;fillColor=#fa6800;fontColor=#000000;strokeColor=#C73500;" vertex="1" parent="1">
          <mxGeometry x="234" y="780" width="180" height="60" as="geometry" />
        </mxCell>
        <mxCell id="oRsIBKET7AKkAO7zckTV-35" value="命名空间" style="text;html=1;strokeColor=none;fillColor=none;align=center;verticalAlign=middle;whiteSpace=wrap;rounded=0;fontSize=20;fontFamily=Architects Daughter;" vertex="1" parent="1">
          <mxGeometry x="200" y="690" width="110" height="30" as="geometry" />
        </mxCell>
        <mxCell id="oRsIBKET7AKkAO7zckTV-48" style="edgeStyle=orthogonalEdgeStyle;rounded=0;sketch=1;hachureGap=4;jiggle=2;curveFitting=1;orthogonalLoop=1;jettySize=auto;html=1;entryX=0;entryY=0.5;entryDx=0;entryDy=0;fontFamily=Architects Daughter;fontSource=https%3A%2F%2Ffonts.googleapis.com%2Fcss%3Ffamily%3DArchitects%2BDaughter;fontSize=16;" edge="1" parent="1" source="oRsIBKET7AKkAO7zckTV-36" target="oRsIBKET7AKkAO7zckTV-47">
          <mxGeometry relative="1" as="geometry" />
        </mxCell>
        <mxCell id="oRsIBKET7AKkAO7zckTV-36" value="import" style="whiteSpace=wrap;html=1;fontSize=20;fontFamily=Architects Daughter;fillColor=#eeeeee;strokeColor=#36393d;rounded=1;sketch=1;hachureGap=4;jiggle=2;curveFitting=1;fontSource=https%3A%2F%2Ffonts.googleapis.com%2Fcss%3Ffamily%3DArchitects%2BDaughter;" vertex="1" parent="1">
          <mxGeometry x="534" y="600" width="198" height="55" as="geometry" />
        </mxCell>
        <mxCell id="oRsIBKET7AKkAO7zckTV-51" style="edgeStyle=orthogonalEdgeStyle;rounded=0;sketch=1;hachureGap=4;jiggle=2;curveFitting=1;orthogonalLoop=1;jettySize=auto;html=1;entryX=-0.012;entryY=0.403;entryDx=0;entryDy=0;entryPerimeter=0;fontFamily=Architects Daughter;fontSource=https%3A%2F%2Ffonts.googleapis.com%2Fcss%3Ffamily%3DArchitects%2BDaughter;fontSize=16;" edge="1" parent="1" source="oRsIBKET7AKkAO7zckTV-39" target="oRsIBKET7AKkAO7zckTV-50">
          <mxGeometry relative="1" as="geometry" />
        </mxCell>
        <mxCell id="oRsIBKET7AKkAO7zckTV-39" value="alias" style="whiteSpace=wrap;html=1;fontSize=20;fontFamily=Architects Daughter;fillColor=#ffff88;strokeColor=#36393d;rounded=1;sketch=1;hachureGap=4;jiggle=2;curveFitting=1;fontSource=https%3A%2F%2Ffonts.googleapis.com%2Fcss%3Ffamily%3DArchitects%2BDaughter;" vertex="1" parent="1">
          <mxGeometry x="532" y="690" width="198" height="55" as="geometry" />
        </mxCell>
        <mxCell id="oRsIBKET7AKkAO7zckTV-54" style="edgeStyle=orthogonalEdgeStyle;rounded=0;sketch=1;hachureGap=4;jiggle=2;curveFitting=1;orthogonalLoop=1;jettySize=auto;html=1;fontFamily=Architects Daughter;fontSource=https%3A%2F%2Ffonts.googleapis.com%2Fcss%3Ffamily%3DArchitects%2BDaughter;fontSize=16;" edge="1" parent="1" source="oRsIBKET7AKkAO7zckTV-40" target="oRsIBKET7AKkAO7zckTV-53">
          <mxGeometry relative="1" as="geometry" />
        </mxCell>
        <mxCell id="oRsIBKET7AKkAO7zckTV-40" value="bean" style="whiteSpace=wrap;html=1;fontSize=20;fontFamily=Architects Daughter;fillColor=#dae8fc;strokeColor=#6c8ebf;rounded=1;sketch=1;hachureGap=4;jiggle=2;curveFitting=1;fontSource=https%3A%2F%2Ffonts.googleapis.com%2Fcss%3Ffamily%3DArchitects%2BDaughter;" vertex="1" parent="1">
          <mxGeometry x="534" y="790" width="198" height="55" as="geometry" />
        </mxCell>
        <mxCell id="oRsIBKET7AKkAO7zckTV-58" style="edgeStyle=orthogonalEdgeStyle;rounded=0;sketch=1;hachureGap=4;jiggle=2;curveFitting=1;orthogonalLoop=1;jettySize=auto;html=1;fontFamily=Architects Daughter;fontSource=https%3A%2F%2Ffonts.googleapis.com%2Fcss%3Ffamily%3DArchitects%2BDaughter;fontSize=16;" edge="1" parent="1" source="oRsIBKET7AKkAO7zckTV-41" target="oRsIBKET7AKkAO7zckTV-57">
          <mxGeometry relative="1" as="geometry" />
        </mxCell>
        <mxCell id="oRsIBKET7AKkAO7zckTV-41" value="beans" style="whiteSpace=wrap;html=1;fontSize=20;fontFamily=Architects Daughter;fillColor=#ffcc99;strokeColor=#36393d;rounded=1;sketch=1;hachureGap=4;jiggle=2;curveFitting=1;fontSource=https%3A%2F%2Ffonts.googleapis.com%2Fcss%3Ffamily%3DArchitects%2BDaughter;" vertex="1" parent="1">
          <mxGeometry x="534" y="890" width="198" height="55" as="geometry" />
        </mxCell>
        <mxCell id="oRsIBKET7AKkAO7zckTV-47" value="&#xa;&lt;import resource=&quot;beans-another.xml&quot;/&gt;" style="text;whiteSpace=wrap;fontSize=20;fontFamily=Architects Daughter;fillColor=#eeeeee;strokeColor=#36393d;align=center;" vertex="1" parent="1">
          <mxGeometry x="827" y="592.5" width="563" height="77.5" as="geometry" />
        </mxCell>
        <mxCell id="oRsIBKET7AKkAO7zckTV-50" value="&lt;bean id=&quot;me&quot; name=&quot;me0&quot; class=&quot;xxx&quot;/&gt;&#xa;&lt;alias name=&quot;me&quot; alias=&quot;me1,me2&quot;/&gt;" style="text;whiteSpace=wrap;fontSize=20;fontFamily=Architects Daughter;fillColor=#ffff88;strokeColor=#36393d;align=center;" vertex="1" parent="1">
          <mxGeometry x="832" y="690" width="558" height="70" as="geometry" />
        </mxCell>
        <mxCell id="oRsIBKET7AKkAO7zckTV-62" style="edgeStyle=orthogonalEdgeStyle;rounded=0;sketch=1;hachureGap=4;jiggle=2;curveFitting=1;orthogonalLoop=1;jettySize=auto;html=1;exitX=1;exitY=0.5;exitDx=0;exitDy=0;entryX=0.003;entryY=0.342;entryDx=0;entryDy=0;entryPerimeter=0;fontFamily=Architects Daughter;fontSource=https%3A%2F%2Ffonts.googleapis.com%2Fcss%3Ffamily%3DArchitects%2BDaughter;fontSize=16;" edge="1" parent="1" source="oRsIBKET7AKkAO7zckTV-53" target="oRsIBKET7AKkAO7zckTV-61">
          <mxGeometry relative="1" as="geometry" />
        </mxCell>
        <mxCell id="oRsIBKET7AKkAO7zckTV-53" value="&lt;bean id=&quot;userDao&quot;class=&quot;com.tangyuan.dao.impl.UserDaoImpl&quot;/&gt;" style="text;whiteSpace=wrap;fontSize=20;fontFamily=Architects Daughter;fillColor=#cce5ff;strokeColor=#36393d;align=center;" vertex="1" parent="1">
          <mxGeometry x="827" y="782.5" width="560" height="70" as="geometry" />
        </mxCell>
        <mxCell id="oRsIBKET7AKkAO7zckTV-57" value="多个Bean的集合" style="text;whiteSpace=wrap;fontSize=20;fontFamily=Architects Daughter;fillColor=#ffcc99;strokeColor=#36393d;align=center;" vertex="1" parent="1">
          <mxGeometry x="832" y="882.5" width="560" height="70" as="geometry" />
        </mxCell>
        <mxCell id="oRsIBKET7AKkAO7zckTV-61" value="&lt;div style=&quot;background-color: rgb(30, 31, 34); color: rgb(188, 190, 196); font-family: &amp;quot;JetBrains Mono&amp;quot;, monospace; font-size: 12pt;&quot;&gt;&lt;span style=&quot;color:#b3ae60;&quot;&gt;@Nullable&lt;br&gt;&lt;/span&gt;&lt;span style=&quot;color:#cf8e6d;&quot;&gt;public &lt;/span&gt;BeanDefinitionHolder &lt;span style=&quot;color:#56a8f5;&quot;&gt;parseBeanDefinitionElement&lt;/span&gt;(Element ele) {&lt;br&gt;    &lt;span style=&quot;color:#cf8e6d;&quot;&gt;return &lt;/span&gt;parseBeanDefinitionElement(ele, &lt;span style=&quot;color:#cf8e6d;&quot;&gt;null&lt;/span&gt;);&lt;br&gt;}&lt;/div&gt;" style="text;whiteSpace=wrap;html=1;fontSize=20;fontFamily=Architects Daughter;" vertex="1" parent="1">
          <mxGeometry x="1500" y="780" width="560" height="120" as="geometry" />
        </mxCell>
        <mxCell id="oRsIBKET7AKkAO7zckTV-70" style="edgeStyle=orthogonalEdgeStyle;rounded=0;sketch=1;hachureGap=4;jiggle=2;curveFitting=1;orthogonalLoop=1;jettySize=auto;html=1;fontFamily=Architects Daughter;fontSource=https%3A%2F%2Ffonts.googleapis.com%2Fcss%3Ffamily%3DArchitects%2BDaughter;fontSize=16;" edge="1" parent="1" source="oRsIBKET7AKkAO7zckTV-65" target="oRsIBKET7AKkAO7zckTV-69">
          <mxGeometry relative="1" as="geometry" />
        </mxCell>
        <mxCell id="oRsIBKET7AKkAO7zckTV-65" value="1：首先创建一个Bean定义容器（GenericBeanDefinition&lt;span style=&quot;background-color: initial;&quot;&gt;）&lt;/span&gt;" style="text;html=1;strokeColor=none;fillColor=none;align=center;verticalAlign=middle;whiteSpace=wrap;rounded=0;fontSize=20;fontFamily=Architects Daughter;" vertex="1" parent="1">
          <mxGeometry x="460" y="1120" width="340" height="50" as="geometry" />
        </mxCell>
        <mxCell id="oRsIBKET7AKkAO7zckTV-69" value="&lt;div style=&quot;background-color: rgb(30, 31, 34); color: rgb(188, 190, 196); font-family: &amp;quot;JetBrains Mono&amp;quot;, monospace; font-size: 12pt;&quot;&gt;&lt;span style=&quot;color:#cf8e6d;&quot;&gt;public static &lt;/span&gt;AbstractBeanDefinition &lt;span style=&quot;color:#56a8f5;&quot;&gt;createBeanDefinition&lt;/span&gt;(&lt;br&gt;       &lt;span style=&quot;color:#b3ae60;&quot;&gt;@Nullable &lt;/span&gt;String parentName, &lt;span style=&quot;color:#b3ae60;&quot;&gt;@Nullable &lt;/span&gt;String className, &lt;span style=&quot;color:#b3ae60;&quot;&gt;@Nullable &lt;/span&gt;ClassLoader classLoader) &lt;span style=&quot;color:#cf8e6d;&quot;&gt;throws &lt;/span&gt;ClassNotFoundException {&lt;br&gt;    &lt;span style=&quot;color:#7a7e85;&quot;&gt;// Create bean definition instance.&lt;br&gt;&lt;/span&gt;&lt;span style=&quot;color:#7a7e85;&quot;&gt;    &lt;/span&gt;GenericBeanDefinition bd = &lt;span style=&quot;color:#cf8e6d;&quot;&gt;new &lt;/span&gt;GenericBeanDefinition();&lt;br&gt;    &lt;span style=&quot;color:#7a7e85;&quot;&gt;// Set parent name, if any.&lt;br&gt;&lt;/span&gt;&lt;span style=&quot;color:#7a7e85;&quot;&gt;    &lt;/span&gt;bd.setParentName(parentName);&lt;br&gt;    &lt;span style=&quot;color:#cf8e6d;&quot;&gt;if &lt;/span&gt;(className != &lt;span style=&quot;color:#cf8e6d;&quot;&gt;null&lt;/span&gt;) {&lt;br&gt;       &lt;span style=&quot;color:#cf8e6d;&quot;&gt;if &lt;/span&gt;(classLoader != &lt;span style=&quot;color:#cf8e6d;&quot;&gt;null&lt;/span&gt;) {&lt;br&gt;          bd.setBeanClass(ClassUtils.&lt;span style=&quot;font-style:italic;&quot;&gt;forName&lt;/span&gt;(className, classLoader));&lt;br&gt;       }&lt;br&gt;       &lt;span style=&quot;color:#cf8e6d;&quot;&gt;else &lt;/span&gt;{&lt;br&gt;          bd.setBeanClassName(className);&lt;br&gt;       }&lt;br&gt;    }&lt;br&gt;    &lt;span style=&quot;color:#cf8e6d;&quot;&gt;return &lt;/span&gt;bd;&lt;br&gt;}&lt;/div&gt;" style="text;whiteSpace=wrap;html=1;fontSize=20;fontFamily=Architects Daughter;" vertex="1" parent="1">
          <mxGeometry x="1020" y="960" width="560" height="370" as="geometry" />
        </mxCell>
        <mxCell id="oRsIBKET7AKkAO7zckTV-71" value="2：解析Bean的基本配置属性，并设置到容器中" style="text;html=1;strokeColor=none;fillColor=none;align=center;verticalAlign=middle;whiteSpace=wrap;rounded=0;fontSize=20;fontFamily=Architects Daughter;" vertex="1" parent="1">
          <mxGeometry x="500" y="1410" width="340" height="50" as="geometry" />
        </mxCell>
        <mxCell id="oRsIBKET7AKkAO7zckTV-72" value="" style="html=1;shadow=0;dashed=0;align=center;verticalAlign=middle;shape=mxgraph.arrows2.arrow;dy=0.6;dx=40;direction=south;notch=0;sketch=1;hachureGap=4;jiggle=2;curveFitting=1;fontFamily=Architects Daughter;fontSource=https%3A%2F%2Ffonts.googleapis.com%2Fcss%3Ffamily%3DArchitects%2BDaughter;fontSize=20;fillColor=#1ba1e2;strokeColor=#006EAF;fontColor=#ffffff;" vertex="1" parent="1">
          <mxGeometry x="620" y="1220" width="52" height="130" as="geometry" />
        </mxCell>
        <mxCell id="oRsIBKET7AKkAO7zckTV-73" value="&lt;div style=&quot;background-color: rgb(30, 31, 34); color: rgb(188, 190, 196); font-family: &amp;quot;JetBrains Mono&amp;quot;, monospace; font-size: 12pt;&quot;&gt;&lt;span style=&quot;color:#cf8e6d;&quot;&gt;public &lt;/span&gt;AbstractBeanDefinition &lt;span style=&quot;color:#56a8f5;&quot;&gt;parseBeanDefinitionAttributes&lt;/span&gt;(Element ele, String beanName,&lt;br&gt;       &lt;span style=&quot;color:#b3ae60;&quot;&gt;@Nullable &lt;/span&gt;BeanDefinition containingBean, AbstractBeanDefinition bd) {&lt;br&gt;    &lt;span style=&quot;color:#7a7e85;&quot;&gt;// &lt;/span&gt;&lt;span style=&quot;color:#7a7e85;font-family:&#39;Courier New&#39;,monospace;&quot;&gt;默认是单例&lt;br&gt;&lt;/span&gt;&lt;span style=&quot;color:#7a7e85;font-family:&#39;Courier New&#39;,monospace;&quot;&gt;    &lt;/span&gt;&lt;span style=&quot;color:#cf8e6d;&quot;&gt;if &lt;/span&gt;(ele.hasAttribute(&lt;span style=&quot;color:#c77dbb;font-style:italic;&quot;&gt;SINGLETON_ATTRIBUTE&lt;/span&gt;)) {&lt;br&gt;       error(&lt;span style=&quot;color:#6aab73;&quot;&gt;&quot;Old 1.x &#39;singleton&#39; attribute in use - upgrade to &#39;scope&#39; declaration&quot;&lt;/span&gt;, ele);&lt;br&gt;    }&lt;br&gt;    &lt;span style=&quot;color:#7a7e85;&quot;&gt;// scope&lt;/span&gt;&lt;span style=&quot;color:#7a7e85;font-family:&#39;Courier New&#39;,monospace;&quot;&gt;属性作用域：&lt;/span&gt;&lt;span style=&quot;color:#7a7e85;&quot;&gt;singleton&lt;/span&gt;&lt;span style=&quot;color:#7a7e85;font-family:&#39;Courier New&#39;,monospace;&quot;&gt;、&lt;/span&gt;&lt;span style=&quot;color:#7a7e85;&quot;&gt;prototype&lt;/span&gt;&lt;span style=&quot;color:#7a7e85;font-family:&#39;Courier New&#39;,monospace;&quot;&gt;、&lt;/span&gt;&lt;span style=&quot;color:#7a7e85;&quot;&gt;request&lt;/span&gt;&lt;span style=&quot;color:#7a7e85;font-family:&#39;Courier New&#39;,monospace;&quot;&gt;、&lt;/span&gt;&lt;span style=&quot;color:#7a7e85;&quot;&gt;session&lt;/span&gt;&lt;span style=&quot;color:#7a7e85;font-family:&#39;Courier New&#39;,monospace;&quot;&gt;、&lt;/span&gt;&lt;span style=&quot;color:#7a7e85;&quot;&gt;global-session&lt;br&gt;&lt;/span&gt;&lt;span style=&quot;color:#7a7e85;&quot;&gt;    &lt;/span&gt;&lt;span style=&quot;color:#cf8e6d;&quot;&gt;else if &lt;/span&gt;(ele.hasAttribute(&lt;span style=&quot;color:#c77dbb;font-style:italic;&quot;&gt;SCOPE_ATTRIBUTE&lt;/span&gt;)) {&lt;br&gt;       bd.setScope(ele.getAttribute(&lt;span style=&quot;color:#c77dbb;font-style:italic;&quot;&gt;SCOPE_ATTRIBUTE&lt;/span&gt;));&lt;br&gt;    }&lt;br&gt;    &lt;span style=&quot;color:#7a7e85;&quot;&gt;// &lt;/span&gt;&lt;span style=&quot;color:#7a7e85;font-family:&#39;Courier New&#39;,monospace;&quot;&gt;如果&lt;/span&gt;&lt;span style=&quot;color:#7a7e85;&quot;&gt;containingBean&lt;/span&gt;&lt;span style=&quot;color:#7a7e85;font-family:&#39;Courier New&#39;,monospace;&quot;&gt;不为空，说明是内部&lt;/span&gt;&lt;span style=&quot;color:#7a7e85;&quot;&gt;bean&lt;/span&gt;&lt;span style=&quot;color:#7a7e85;font-family:&#39;Courier New&#39;,monospace;&quot;&gt;，那么就从&lt;/span&gt;&lt;span style=&quot;color:#7a7e85;&quot;&gt;containingBean&lt;/span&gt;&lt;span style=&quot;color:#7a7e85;font-family:&#39;Courier New&#39;,monospace;&quot;&gt;中获取&lt;/span&gt;&lt;span style=&quot;color:#7a7e85;&quot;&gt;scope&lt;/span&gt;&lt;span style=&quot;color:#7a7e85;font-family:&#39;Courier New&#39;,monospace;&quot;&gt;属性&lt;br&gt;&lt;/span&gt;&lt;span style=&quot;color:#7a7e85;font-family:&#39;Courier New&#39;,monospace;&quot;&gt;    &lt;/span&gt;&lt;span style=&quot;color:#cf8e6d;&quot;&gt;else if &lt;/span&gt;(containingBean != &lt;span style=&quot;color:#cf8e6d;&quot;&gt;null&lt;/span&gt;) {&lt;br&gt;       &lt;span style=&quot;color:#7a7e85;&quot;&gt;// Take default from containing bean in case of an inner bean definition.&lt;br&gt;&lt;/span&gt;&lt;span style=&quot;color:#7a7e85;&quot;&gt;       &lt;/span&gt;bd.setScope(containingBean.getScope());&lt;br&gt;    }&lt;br&gt;    &lt;span style=&quot;color:#7a7e85;&quot;&gt;// &lt;/span&gt;&lt;span style=&quot;color:#7a7e85;font-family:&#39;Courier New&#39;,monospace;&quot;&gt;是否抽象类&lt;br&gt;&lt;/span&gt;&lt;span style=&quot;color:#7a7e85;font-family:&#39;Courier New&#39;,monospace;&quot;&gt;    &lt;/span&gt;&lt;span style=&quot;color:#cf8e6d;&quot;&gt;if &lt;/span&gt;(ele.hasAttribute(&lt;span style=&quot;color:#c77dbb;font-style:italic;&quot;&gt;ABSTRACT_ATTRIBUTE&lt;/span&gt;)) {&lt;br&gt;       bd.setAbstract(&lt;span style=&quot;color:#c77dbb;font-style:italic;&quot;&gt;TRUE_VALUE&lt;/span&gt;.equals(ele.getAttribute(&lt;span style=&quot;color:#c77dbb;font-style:italic;&quot;&gt;ABSTRACT_ATTRIBUTE&lt;/span&gt;)));&lt;br&gt;    }&lt;br&gt;    &lt;span style=&quot;color:#7a7e85;&quot;&gt;// &lt;/span&gt;&lt;span style=&quot;color:#7a7e85;font-family:&#39;Courier New&#39;,monospace;&quot;&gt;是否延迟初始化&lt;br&gt;&lt;/span&gt;&lt;span style=&quot;color:#7a7e85;font-family:&#39;Courier New&#39;,monospace;&quot;&gt;    &lt;/span&gt;String lazyInit = ele.getAttribute(&lt;span style=&quot;color:#c77dbb;font-style:italic;&quot;&gt;LAZY_INIT_ATTRIBUTE&lt;/span&gt;);&lt;br&gt;    &lt;span style=&quot;color:#cf8e6d;&quot;&gt;if &lt;/span&gt;(isDefaultValue(lazyInit)) {&lt;br&gt;       lazyInit = &lt;span style=&quot;color:#cf8e6d;&quot;&gt;this&lt;/span&gt;.&lt;span style=&quot;color:#c77dbb;&quot;&gt;defaults&lt;/span&gt;.getLazyInit();&lt;br&gt;    }&lt;br&gt;    bd.setLazyInit(&lt;span style=&quot;color:#c77dbb;font-style:italic;&quot;&gt;TRUE_VALUE&lt;/span&gt;.equals(lazyInit));&lt;br&gt;    &lt;span style=&quot;color:#7a7e85;&quot;&gt;// &lt;/span&gt;&lt;span style=&quot;color:#7a7e85;font-family:&#39;Courier New&#39;,monospace;&quot;&gt;是否自动装配&lt;br&gt;&lt;/span&gt;&lt;span style=&quot;color:#7a7e85;font-family:&#39;Courier New&#39;,monospace;&quot;&gt;    &lt;/span&gt;String autowire = ele.getAttribute(&lt;span style=&quot;color:#c77dbb;font-style:italic;&quot;&gt;AUTOWIRE_ATTRIBUTE&lt;/span&gt;);&lt;br&gt;    bd.setAutowireMode(getAutowireMode(autowire));&lt;br&gt;    &lt;span style=&quot;color:#7a7e85;&quot;&gt;// &lt;/span&gt;&lt;span style=&quot;color:#7a7e85;font-family:&#39;Courier New&#39;,monospace;&quot;&gt;是否依赖检查&lt;br&gt;&lt;/span&gt;&lt;span style=&quot;color:#7a7e85;font-family:&#39;Courier New&#39;,monospace;&quot;&gt;    &lt;/span&gt;&lt;span style=&quot;color:#cf8e6d;&quot;&gt;if &lt;/span&gt;(ele.hasAttribute(&lt;span style=&quot;color:#c77dbb;font-style:italic;&quot;&gt;DEPENDS_ON_ATTRIBUTE&lt;/span&gt;)) {&lt;br&gt;       String dependsOn = ele.getAttribute(&lt;span style=&quot;color:#c77dbb;font-style:italic;&quot;&gt;DEPENDS_ON_ATTRIBUTE&lt;/span&gt;);&lt;br&gt;       bd.setDependsOn(StringUtils.&lt;span style=&quot;font-style:italic;&quot;&gt;tokenizeToStringArray&lt;/span&gt;(dependsOn, &lt;span style=&quot;color:#c77dbb;font-style:italic;&quot;&gt;MULTI_VALUE_ATTRIBUTE_DELIMITERS&lt;/span&gt;));&lt;br&gt;    }&lt;br&gt;    &lt;span style=&quot;color:#7a7e85;&quot;&gt;// &lt;/span&gt;&lt;span style=&quot;color:#7a7e85;font-family:&#39;Courier New&#39;,monospace;&quot;&gt;是否自动装配候选&lt;br&gt;&lt;/span&gt;&lt;span style=&quot;color:#7a7e85;font-family:&#39;Courier New&#39;,monospace;&quot;&gt;    &lt;/span&gt;String autowireCandidate = ele.getAttribute(&lt;span style=&quot;color:#c77dbb;font-style:italic;&quot;&gt;AUTOWIRE_CANDIDATE_ATTRIBUTE&lt;/span&gt;);&lt;br&gt;    &lt;span style=&quot;color:#cf8e6d;&quot;&gt;if &lt;/span&gt;(isDefaultValue(autowireCandidate)) {&lt;br&gt;       String candidatePattern = &lt;span style=&quot;color:#cf8e6d;&quot;&gt;this&lt;/span&gt;.&lt;span style=&quot;color:#c77dbb;&quot;&gt;defaults&lt;/span&gt;.getAutowireCandidates();&lt;br&gt;       &lt;span style=&quot;color:#cf8e6d;&quot;&gt;if &lt;/span&gt;(candidatePattern != &lt;span style=&quot;color:#cf8e6d;&quot;&gt;null&lt;/span&gt;) {&lt;br&gt;          String[] patterns = StringUtils.&lt;span style=&quot;font-style:italic;&quot;&gt;commaDelimitedListToStringArray&lt;/span&gt;(candidatePattern);&lt;br&gt;          bd.setAutowireCandidate(PatternMatchUtils.&lt;span style=&quot;font-style:italic;&quot;&gt;simpleMatch&lt;/span&gt;(patterns, beanName));&lt;br&gt;       }&lt;br&gt;    }&lt;br&gt;    &lt;span style=&quot;color:#cf8e6d;&quot;&gt;else &lt;/span&gt;{&lt;br&gt;       bd.setAutowireCandidate(&lt;span style=&quot;color:#c77dbb;font-style:italic;&quot;&gt;TRUE_VALUE&lt;/span&gt;.equals(autowireCandidate));&lt;br&gt;    }&lt;br&gt;    &lt;span style=&quot;color:#7a7e85;&quot;&gt;// &lt;/span&gt;&lt;span style=&quot;color:#7a7e85;font-family:&#39;Courier New&#39;,monospace;&quot;&gt;是否首要的&lt;br&gt;&lt;/span&gt;&lt;span style=&quot;color:#7a7e85;font-family:&#39;Courier New&#39;,monospace;&quot;&gt;    &lt;/span&gt;&lt;span style=&quot;color:#cf8e6d;&quot;&gt;if &lt;/span&gt;(ele.hasAttribute(&lt;span style=&quot;color:#c77dbb;font-style:italic;&quot;&gt;PRIMARY_ATTRIBUTE&lt;/span&gt;)) {&lt;br&gt;       bd.setPrimary(&lt;span style=&quot;color:#c77dbb;font-style:italic;&quot;&gt;TRUE_VALUE&lt;/span&gt;.equals(ele.getAttribute(&lt;span style=&quot;color:#c77dbb;font-style:italic;&quot;&gt;PRIMARY_ATTRIBUTE&lt;/span&gt;)));&lt;br&gt;    }&lt;br&gt;    &lt;span style=&quot;color:#7a7e85;&quot;&gt;// &lt;/span&gt;&lt;span style=&quot;color:#7a7e85;font-family:&#39;Courier New&#39;,monospace;&quot;&gt;是否初始化&lt;br&gt;&lt;/span&gt;&lt;span style=&quot;color:#7a7e85;font-family:&#39;Courier New&#39;,monospace;&quot;&gt;    &lt;/span&gt;&lt;span style=&quot;color:#cf8e6d;&quot;&gt;if &lt;/span&gt;(ele.hasAttribute(&lt;span style=&quot;color:#c77dbb;font-style:italic;&quot;&gt;INIT_METHOD_ATTRIBUTE&lt;/span&gt;)) {&lt;br&gt;       String initMethodName = ele.getAttribute(&lt;span style=&quot;color:#c77dbb;font-style:italic;&quot;&gt;INIT_METHOD_ATTRIBUTE&lt;/span&gt;);&lt;br&gt;       bd.setInitMethodName(initMethodName);&lt;br&gt;    }&lt;br&gt;    &lt;span style=&quot;color:#cf8e6d;&quot;&gt;else if &lt;/span&gt;(&lt;span style=&quot;color:#cf8e6d;&quot;&gt;this&lt;/span&gt;.&lt;span style=&quot;color:#c77dbb;&quot;&gt;defaults&lt;/span&gt;.getInitMethod() != &lt;span style=&quot;color:#cf8e6d;&quot;&gt;null&lt;/span&gt;) {&lt;br&gt;       bd.setInitMethodName(&lt;span style=&quot;color:#cf8e6d;&quot;&gt;this&lt;/span&gt;.&lt;span style=&quot;color:#c77dbb;&quot;&gt;defaults&lt;/span&gt;.getInitMethod());&lt;br&gt;       bd.setEnforceInitMethod(&lt;span style=&quot;color:#cf8e6d;&quot;&gt;false&lt;/span&gt;);&lt;br&gt;    }&lt;br&gt;    &lt;span style=&quot;color:#7a7e85;&quot;&gt;// &lt;/span&gt;&lt;span style=&quot;color:#7a7e85;font-family:&#39;Courier New&#39;,monospace;&quot;&gt;是否销毁&lt;br&gt;&lt;/span&gt;&lt;span style=&quot;color:#7a7e85;font-family:&#39;Courier New&#39;,monospace;&quot;&gt;    &lt;/span&gt;&lt;span style=&quot;color:#cf8e6d;&quot;&gt;if &lt;/span&gt;(ele.hasAttribute(&lt;span style=&quot;color:#c77dbb;font-style:italic;&quot;&gt;DESTROY_METHOD_ATTRIBUTE&lt;/span&gt;)) {&lt;br&gt;       String destroyMethodName = ele.getAttribute(&lt;span style=&quot;color:#c77dbb;font-style:italic;&quot;&gt;DESTROY_METHOD_ATTRIBUTE&lt;/span&gt;);&lt;br&gt;       bd.setDestroyMethodName(destroyMethodName);&lt;br&gt;    }&lt;br&gt;    &lt;span style=&quot;color:#cf8e6d;&quot;&gt;else if &lt;/span&gt;(&lt;span style=&quot;color:#cf8e6d;&quot;&gt;this&lt;/span&gt;.&lt;span style=&quot;color:#c77dbb;&quot;&gt;defaults&lt;/span&gt;.getDestroyMethod() != &lt;span style=&quot;color:#cf8e6d;&quot;&gt;null&lt;/span&gt;) {&lt;br&gt;       bd.setDestroyMethodName(&lt;span style=&quot;color:#cf8e6d;&quot;&gt;this&lt;/span&gt;.&lt;span style=&quot;color:#c77dbb;&quot;&gt;defaults&lt;/span&gt;.getDestroyMethod());&lt;br&gt;       bd.setEnforceDestroyMethod(&lt;span style=&quot;color:#cf8e6d;&quot;&gt;false&lt;/span&gt;);&lt;br&gt;    }&lt;br&gt;&lt;br&gt;    &lt;span style=&quot;color:#cf8e6d;&quot;&gt;if &lt;/span&gt;(ele.hasAttribute(&lt;span style=&quot;color:#c77dbb;font-style:italic;&quot;&gt;FACTORY_METHOD_ATTRIBUTE&lt;/span&gt;)) {&lt;br&gt;       bd.setFactoryMethodName(ele.getAttribute(&lt;span style=&quot;color:#c77dbb;font-style:italic;&quot;&gt;FACTORY_METHOD_ATTRIBUTE&lt;/span&gt;));&lt;br&gt;    }&lt;br&gt;    &lt;span style=&quot;color:#cf8e6d;&quot;&gt;if &lt;/span&gt;(ele.hasAttribute(&lt;span style=&quot;color:#c77dbb;font-style:italic;&quot;&gt;FACTORY_BEAN_ATTRIBUTE&lt;/span&gt;)) {&lt;br&gt;       bd.setFactoryBeanName(ele.getAttribute(&lt;span style=&quot;color:#c77dbb;font-style:italic;&quot;&gt;FACTORY_BEAN_ATTRIBUTE&lt;/span&gt;));&lt;br&gt;    }&lt;br&gt;&lt;br&gt;    &lt;span style=&quot;color:#cf8e6d;&quot;&gt;return &lt;/span&gt;bd;&lt;br&gt;}&lt;/div&gt;" style="text;whiteSpace=wrap;html=1;fontSize=20;fontFamily=Architects Daughter;" vertex="1" parent="1">
          <mxGeometry x="1010" y="1320" width="560" height="1750" as="geometry" />
        </mxCell>
        <mxCell id="oRsIBKET7AKkAO7zckTV-74" value="3：解析Bean的其他配置属性，并设置到容器中" style="text;html=1;strokeColor=none;fillColor=none;align=center;verticalAlign=middle;whiteSpace=wrap;rounded=0;fontSize=20;fontFamily=Architects Daughter;" vertex="1" parent="1">
          <mxGeometry x="492" y="1680" width="340" height="50" as="geometry" />
        </mxCell>
        <mxCell id="oRsIBKET7AKkAO7zckTV-75" value="" style="html=1;shadow=0;dashed=0;align=center;verticalAlign=middle;shape=mxgraph.arrows2.arrow;dy=0.6;dx=40;direction=south;notch=0;sketch=1;hachureGap=4;jiggle=2;curveFitting=1;fontFamily=Architects Daughter;fontSource=https%3A%2F%2Ffonts.googleapis.com%2Fcss%3Ffamily%3DArchitects%2BDaughter;fontSize=20;fillColor=#1ba1e2;strokeColor=#006EAF;fontColor=#ffffff;" vertex="1" parent="1">
          <mxGeometry x="632" y="1490" width="52" height="130" as="geometry" />
        </mxCell>
      </root>
    </mxGraphModel>
  </diagram>
</mxfile>
